PathFileType	4	(X/Y/Z)	walk-thru1-2-TP.trc
DataRate	CameraRate	NumFrames	NumMarkers	Units	OrigDataRate	OrigDataStartFrame	OrigNumFrames
120.00	120.00	       4	60	mm	120.00	314	       502
Frame#	Time	Top.Head			Front.Head			Rear.Head			Jaw			C7			R.Clavicle			L.Clavicle			R.Shoulder			L.Shoulder			R.Scapula			L.Scapula			R.Scap.Inf			R.Biceps.Lateral			R.Elbow			R.Elbow.Medial			R.Forearm			R.Ulna			R.Radius			R.Wrist			R.Thumb.M1			R.Thumb.M2			R.Thumb.M3			R.Finger3.M1			R.Finger3.M2			R.Finger3.M3			L.Biceps.Lateral			L.Elbow			L.Elbow.Medial			L.Forearm			L.Ulna			L.Radius			L.Wrist			L.Thumb.M1			L.Thumb.M2			L.Thumb.M3			L.Finger3.M1			L.Finger3.M2			L.Finger3.M3			V.Sacral			R.ASIS			L.ASIS			R.Thigh			R.Thigh.Front			R.Knee			R.Knee.Medial			R.Shank			R.Ankle			R.Ankle.Medial			R.Heel			R.Toe			R.MedFoot			L.Thigh			L.Knee			L.Knee.Medial			L.Shank			L.Ankle			L.Ankle.Medial			L.Heel			L.Toe			L.MedFoot			V_mid_ASIS			V_R_Knee_JC			V_L_Knee_JC			V_R_Elbow_JC			V_L_Elbow_JC			V_R_Ankle_JC			V_L_Ankle_JC			V_R_Wrist_JC			V_L_Wrist_JC			V_R_ScaTrpz_1stMC_JC			V_R_1stMC_1stPP_JC			V_R_1stPP_1stDP_JC			V_R_LunCap_3rdMC_JC			V_R_3rdMC_3rdPP_JC			V_R_3rdPP_3rdMP_JC			V_R_3rdMP_3rdDP_JC			V_L_ScaTrpz_1stMC_JC			V_L_1stMC_1stPP_JC			V_L_1stPP_1stDP_JC			V_L_LunCap_3rdMC_JC			V_L_3rdMC_3rdPP_JC			V_L_3rdPP_3rdMP_JC			V_L_3rdMP_3rdPP_JC			V_ROOT_JC			V_R_Hip_JC			V_L_Hip_JC			V_R_GlenHum_JC			V_L_GlenHum_JC			V_ForeHead_Ctr			V_Vertex			V_Sagit_Lambdoid_Suture			V_R_FrontoTemp			V_L_FrontoTemporal			V_R_ParietalOccip			V_L_ParietalOcciptal			V_R_Temporal			V_L_Temporal			V_mid_FrontRearHead			V_mid_RLGlenHumCtrs			V_C7_vert			V_C1_vert			V_Mid_Hip			
		X1	Y1	Z1	X2	Y2	Z2	X3	Y3	Z3	X4	Y4	Z4	X5	Y5	Z5	X6	Y6	Z6	X7	Y7	Z7	X8	Y8	Z8	X9	Y9	Z9	X10	Y10	Z10	X11	Y11	Z11	X12	Y12	Z12	X13	Y13	Z13	X14	Y14	Z14	X15	Y15	Z15	X16	Y16	Z16	X17	Y17	Z17	X18	Y18	Z18	X19	Y19	Z19	X20	Y20	Z20	X21	Y21	Z21	X22	Y22	Z22	X23	Y23	Z23	X24	Y24	Z24	X25	Y25	Z25	X26	Y26	Z26	X27	Y27	Z27	X28	Y28	Z28	X29	Y29	Z29	X30	Y30	Z30	X31	Y31	Z31	X32	Y32	Z32	X33	Y33	Z33	X34	Y34	Z34	X35	Y35	Z35	X36	Y36	Z36	X37	Y37	Z37	X38	Y38	Z38	X39	Y39	Z39	X40	Y40	Z40	X41	Y41	Z41	X42	Y42	Z42	X43	Y43	Z43	X44	Y44	Z44	X45	Y45	Z45	X46	Y46	Z46	X47	Y47	Z47	X48	Y48	Z48	X49	Y49	Z49	X50	Y50	Z50	X51	Y51	Z51	X52	Y52	Z52	X53	Y53	Z53	X54	Y54	Z54	X55	Y55	Z55	X56	Y56	Z56	X57	Y57	Z57	X58	Y58	Z58	X59	Y59	Z59	X60	Y60	Z60	

314	2.608	987.07550	103.54765	1763.83875	1079.38733	77.28831	1637.26978	851.78528	105.79455	1696.69153	978.81226	73.11299	1468.10596	751.30530	88.32775	1573.21948	845.32574	-38.38247	1499.68567	855.77002	204.15582	1470.02930	792.69647	-143.41016	1498.24927	815.25696	308.55164	1465.01257	682.45294	-12.88847	1492.40198	681.58240	179.94514	1470.09607	647.84833	-19.28029	1404.34924	744.68701	-184.29419	1364.08679	671.94287	-221.53755	1186.65833	675.07617	-124.60239	1173.05615	760.68121	-224.73279	1116.88074	693.70306	-232.95567	983.16748	805.57086	-228.60635	949.41113	804.58685	-271.37173	916.88916	821.92932	-218.70151	906.60468	823.79706	-184.31535	865.37024	818.76398	-175.20160	814.11346	816.03534	-272.42139	831.92194	779.65558	-215.69106	785.84186	755.25928	-172.77681	828.35571	765.68054	338.79752	1319.51770	713.14001	356.83374	1148.96692	698.02716	264.79807	1120.57556	804.92883	355.31860	1076.10181	757.04700	382.81732	966.16144	859.08710	358.49393	921.87531	843.06433	400.89120	886.89319	889.80280	360.52792	870.47662	915.53931	336.68036	827.83502	929.62451	342.43179	780.34955	881.47498	417.60385	794.05560	890.18396	388.26578	735.35645	881.32281	327.40314	733.47119	624.55780	61.05267	1124.04492	813.21552	-133.47868	1071.67932	818.21533	216.85249	1061.90112	879.11774	-143.90685	708.69244	984.96851	-68.09105	618.87189	938.37909	-125.58592	556.50757	941.15662	-7.15438	548.34882	921.27557	-97.25522	335.73026	793.01947	-123.97166	125.93230	829.29480	-22.84847	140.71747	736.91193	-65.94904	93.46315	950.90564	-99.01878	63.08903	910.99670	-64.39954	103.38118	783.35321	207.81342	670.52875	786.36365	177.90450	528.04987	780.49609	67.88189	510.95959	773.47565	127.11783	318.84564	651.87585	124.68736	81.40475	704.99744	37.48182	111.73219	614.34949	50.55395	51.12796	834.59656	121.32961	42.06884	772.30579	78.04733	85.65695																																																																																																																															
315	2.617	991.80878	103.28143	1763.28381	1084.22876	76.70090	1637.02112	856.74097	107.41161	1696.63770	983.50555	73.34705	1467.39661	756.27771	88.74980	1571.81433	850.84943	-38.70312	1499.62744	860.18585	204.83174	1469.42542	797.80579	-143.39113	1497.62195	819.48389	307.50217	1464.90466	686.78833	-13.90080	1493.12610	686.69568	180.20879	1469.96753	654.27332	-19.96910	1402.80713	751.88959	-184.11096	1362.74597	676.03992	-220.33519	1185.95093	679.36285	-123.02798	1173.12939	766.10931	-224.11334	1114.83643	697.82831	-232.42461	982.64886	810.01434	-229.53510	948.88690	807.91235	-271.49329	916.92627	825.83667	-219.68214	906.01526	831.73706	-187.65900	864.93256	828.49457	-177.94661	813.27039	821.01202	-273.72034	831.77319	787.95447	-215.63551	785.79919	763.29950	-173.65640	823.90009	771.13806	338.79550	1319.21887	719.59607	358.62225	1148.47705	702.99445	265.74304	1120.88330	810.68280	355.26764	1075.63611	766.35272	382.62769	965.55109	866.30090	359.74167	922.15472	850.84650	402.17288	887.87347	896.85498	360.95514	871.48413	922.98334	337.92834	829.63538	938.10651	343.27502	781.84833	890.27216	417.88751	795.98828	899.36945	388.19794	736.71826	890.04425	329.05771	733.88428	629.52521	60.67904	1123.53406	818.43811	-132.57289	1071.23108	823.84851	216.17477	1061.08801	884.68744	-143.11620	708.26782	989.78217	-66.82377	619.12939	943.61835	-125.77694	556.44769	946.08612	-5.97029	548.60596	933.27563	-95.27110	335.83826	812.24231	-123.53046	121.85976	846.11804	-23.68856	136.70441	756.12103	-65.13020	87.56746	971.73260	-98.38256	63.05203	930.63086	-62.76210	103.26617	786.58966	206.51682	670.54242	788.72913	177.41653	526.85419	781.70673	67.33601	510.36694	774.78577	127.35628	318.52795	651.77216	124.75378	81.53265	705.17987	37.47173	111.64545	614.42273	50.57283	51.26257	834.46527	121.72528	42.41159	772.96069	78.22636	86.15115																																																																																																																															
316	2.625	997.24701	104.07879	1763.08813	1088.49744	77.79282	1637.27161	860.87762	107.22595	1696.26599	988.58105	73.32269	1468.03809	761.56366	88.16979	1572.26746	856.18567	-37.71749	1498.75623	865.12878	205.00006	1469.38232	802.97198	-143.17796	1497.68909	824.59418	308.36423	1464.85193	691.88080	-12.53188	1491.65027	691.32819	180.56445	1469.94885	658.81525	-19.53807	1403.01343	755.04547	-184.07153	1362.60669	680.75995	-219.51012	1186.31006	686.15814	-122.49397	1173.19116	770.86053	-222.97717	1114.05151	701.17163	-230.31955	982.28967	813.73828	-227.46739	947.86200	811.77130	-272.01620	916.70105	831.40637	-220.09023	906.37543	838.30389	-187.74594	863.92535	837.89752	-181.56786	811.80664	825.97980	-275.86038	832.52386	796.34790	-217.87041	784.19440	773.41632	-173.95767	823.68207	776.60413	339.44409	1319.80457	726.03381	359.33374	1147.40039	712.35419	266.55182	1119.30298	818.44696	356.58716	1076.07422	772.75684	383.95370	964.72504	874.55347	361.08151	922.61768	859.19440	403.55612	888.06702	905.09613	361.91852	872.83929	931.07239	338.02780	830.45502	946.77637	344.47021	782.39178	898.05280	418.70050	795.82574	907.99426	390.34421	737.08582	898.55396	331.12250	734.50085	634.41669	61.70066	1123.24451	823.60498	-132.48804	1070.58826	826.19611	217.53180	1060.87878	889.33673	-142.58458	707.90179	994.07806	-65.60643	619.09137	949.30402	-124.29169	555.94965	950.38660	-6.17078	548.34393	944.98090	-94.02486	336.48398	831.60760	-123.05313	117.99392	864.07123	-22.72792	134.12592	775.58838	-65.23551	82.60345	992.15747	-96.87514	64.47749	949.76990	-61.54776	103.18587	788.85095	207.05415	670.04822	790.82184	178.01654	526.69293	784.04285	68.04344	509.92474	775.23767	125.85484	317.77234	651.69202	124.62366	81.71538	704.20581	36.55044	111.84141	614.35034	50.61720	51.67080	833.88873	121.74358	42.08455	773.08405	78.32193	86.09272																																																																																																																															
317	2.633	1002.42529	103.73774	1763.37537	1094.01550	78.37707	1637.54858	866.19629	108.51964	1696.93494	993.63361	73.99557	1468.04663	767.79449	87.68299	1571.41711	861.38348	-37.38087	1498.97168	870.27032	204.62987	1468.89917	808.00507	-143.22223	1497.24829	829.36456	309.24692	1464.51294	697.07538	-12.92102	1491.53076	697.10596	180.44611	1469.29968	662.60645	-19.30832	1402.93872	760.32147	-183.68794	1362.21912	684.64850	-217.98923	1185.88025	688.56079	-121.50633	1172.34619	773.28796	-221.32440	1114.23535	705.25665	-227.64943	981.52826	818.03241	-227.22569	947.35272	814.62439	-271.27945	916.14282	836.22504	-220.50797	905.80237	845.70880	-190.33800	862.74115	846.51233	-185.27948	810.70544	831.74200	-276.99643	832.62878	803.17859	-220.15834	782.71710	782.58911	-173.04115	819.63971	782.37988	339.88477	1319.18408	732.06104	359.53720	1147.32092	715.91998	267.34659	1119.75940	823.74139	356.21149	1076.44397	780.20776	384.50198	965.04089	881.90723	362.16718	923.29266	867.79236	404.25687	888.99133	913.08893	362.70197	873.08832	939.25385	339.67856	830.53174	955.06354	345.62643	784.12799	906.82239	420.16159	797.05353	917.58746	391.60144	738.38885	908.22845	331.01312	734.76520	639.13715	61.27203	1123.02368	828.70306	-132.76306	1070.15662	829.00958	216.79857	1060.82471	893.78851	-142.50209	707.19775	997.98877	-65.36334	618.82349	954.25897	-123.61383	556.14551	954.44464	-5.87741	547.39502	956.68378	-93.16268	336.67874	850.18488	-121.62008	113.77789	882.09723	-22.06020	131.75594	795.26001	-64.87904	77.56702	1012.80151	-95.97816	65.88422	969.03204	-61.09813	103.31145	792.21649	206.80685	669.49390	791.79681	177.80128	526.16760	785.91132	68.27094	510.16876	776.78766	127.13238	317.06934	651.72968	124.54855	81.93069	705.54498	37.63971	111.63782	614.35034	50.61720	51.67080	834.00580	122.05744	42.26187	773.08405	78.32193	86.09272																																																																																																																															
